PathFileType	3	(X/Y/Z)	C:\Users\koon_\Desktop\
DataRate	CameraRate	NumFrames	NumMarkers	Units	OrigDataRate	OrigDataStartFrame	OrigNumFrames
100.0	100.0	12	27	mm	100.0	927	3706	
Frame#	Time	GM:LFHD			GM:RFHD			GM:LBHD			GM:RBHD			GM:C7			GM:T10			GM:CLAV			GM:STRN			GM:RBAK			GM:LSHO			GM:LUPA			GM:LELB			GM:LFRA			GM:LWRA			GM:LWRB			GM:LFIN			GM:RSHO			GM:RUPA			GM:RELB			GM:RFRA			GM:RWRA			GM:RWRB			GM:RFIN			GM:LASI			GM:RASI			GM:LPSI			GM:RPSI			
		X1	Y1	Z1	X2	Y2	Z2	X3	Y3	Z3	X4	Y4	Z4	X5	Y5	Z5	X6	Y6	Z6	X7	Y7	Z7	X8	Y8	Z8	X9	Y9	Z9	X10	Y10	Z10	X11	Y11	Z11	X12	Y12	Z12	X13	Y13	Z13	X14	Y14	Z14	X15	Y15	Z15	X16	Y16	Z16	X17	Y17	Z17	X18	Y18	Z18	X19	Y19	Z19	X20	Y20	Z20	X21	Y21	Z21	X22	Y22	Z22	X23	Y23	Z23	X24	Y24	Z24	X25	Y25	Z25	X26	Y26	Z26	X27	Y27	Z27	
927	9.26	70.943436	1602.8484	-64.665955	-82.979118	1599.2897	-61.80574	68.65007	1592.7083	-197.18761	-94.504753	1590.7589	-177.24896	-4.5452695	1423.3772	-245.84624	-2.4911573	1227.2787	-287.61285	0.5508647	1376.1661	-91.208496	5.3078694	1231.6204	-43.413246	-90.988129	1307.6606	-278.50995	103.23988	1449.7266	-210.7453	168.9191	1493.9624	-223.66064	354.3316	1562.4386	-252.47032	403.77686	1682.5868	-176.77444	450.80734	1737.4492	-157.91968	473.849	1740.2252	-220.33774	503.67551	1815.3666	-147.73251	-120.78851	1454.089	-203.62686	-276.97995	1535.8245	-199.70346	-376.96115	1556.2434	-222.24612	-371.23932	1640.9698	-179.42476	-455.90289	1740.1495	-140.02989	-496.45712	1726.3708	-184.59537	-510.8894	1818.1403	-134.66446	144.16281	902.79517	-81.941124	-147.71318	906.7146	-72.529213	61.239498	954.85144	-288.75842	-76.113609	945.52838	-285.62296
928	9.27	70.947731	1603.0782	-64.658333	-83.018845	1599.3668	-61.966167	68.756912	1592.9364	-197.19652	-94.431564	1590.8593	-176.95665	-4.2467947	1423.3423	-245.9657	-2.4243453	1227.3317	-287.29568	0.54071635	1376.5984	-91.440331	5.3227582	1232.1362	-43.303947	-90.991447	1307.8322	-278.3006	102.21211	1450.0238	-211.43729	165.98912	1495.3691	-224.30583	349.28375	1568.8922	-251.99092	394.11377	1691.3575	-177.46861	439.32321	1747.7888	-158.81715	462.4248	1750.969	-220.70493	489.64627	1827.8234	-148.74628	-119.57677	1454.7183	-204.20589	-272.4942	1540.1049	-200.55005	-372.11621	1563.0564	-222.01341	-363.60043	1648.0732	-180.4306	-445.21991	1749.9912	-141.40186	-486.19992	1737.0262	-185.62517	-497.99353	1829.889	-136.53009	144.15915	902.78558	-82.039566	-147.73647	906.72382	-72.707741	61.235634	954.92084	-288.77734	-76.102669	945.60602	-285.6778
929	9.28	70.971947	1603.2753	-64.671944	-83.004822	1599.4143	-62.105873	68.95845	1593.2262	-197.25562	-94.443535	1590.8499	-176.70897	-3.9502826	1423.2743	-246.19716	-2.3016822	1227.3176	-287.11362	0.61908495	1377.0565	-91.662331	5.2519894	1232.5829	-43.247368	-90.937813	1307.9408	-278.11212	101.23325	1450.3619	-212.23402	163.16774	1496.6337	-224.9294	344.34003	1574.9091	-251.2263	384.34744	1699.8259	-177.81067	427.65652	1758.0226	-159.56708	451.02609	1761.067	-221.12001	475.29031	1839.6373	-149.88942	-118.42107	1455.3024	-204.80434	-268.01038	1544.0653	-201.09482	-367.26279	1569.525	-221.80452	-355.94141	1654.7593	-181.30835	-434.27209	1759.3278	-142.72897	-476.00348	1747.0371	-186.49977	-485.06836	1840.7151	-138.17584	144.10185	902.81451	-82.123627	-147.78485	906.75488	-72.841415	61.183548	954.98456	-288.87143	-76.105095	945.68744	-285.76703
930	9.29	71.056969	1603.4573	-64.662376	-82.942535	1599.3992	-62.320961	69.165169	1593.4827	-197.33281	-94.200478	1591.016	-178.01768	-3.7260971	1423.1907	-246.3163	-2.1979549	1227.3621	-286.99777	0.79722327	1377.4851	-91.863716	5.3209438	1232.9639	-43.13596	-90.919464	1308.0696	-277.90607	100.30611	1450.6339	-213.06993	160.43304	1497.7356	-225.57527	339.45413	1580.6848	-250.54788	374.77319	1707.6239	-178.39432	415.91379	1767.3248	-160.32327	439.91736	1769.9999	-220.99323	460.96152	1850.6526	-150.98213	-117.27899	1455.8269	-205.42958	-263.55795	1547.8365	-201.51796	-362.34354	1575.6937	-221.44481	-348.35962	1660.9824	-182.11142	-423.77286	1768.0266	-143.4422	-465.93976	1756.3694	-187.10089	-472.34003	1850.908	-139.40666	144.04095	902.81451	-82.20591	-147.88303	906.76074	-73.014076	61.186317	955.07733	-288.84088	-76.124542	945.72522	-285.81903
931	9.3	71.167671	1603.5719	-64.755547	-82.842865	1599.4489	-62.551914	69.362846	1593.7444	-197.41833	-94.188629	1590.9932	-176.93803	-3.5922501	1423.1154	-246.48836	-2.100879	1227.363	-286.73093	1.0012127	1377.8905	-92.09671	5.3710971	1233.3606	-43.076344	-90.862328	1308.1603	-277.77274	99.524979	1450.8428	-213.95576	157.79056	1498.7659	-226.37854	334.68503	1586.085	-249.84985	364.88654	1715.0649	-178.94301	404.05792	1776.197	-161.12065	429.17581	1778.7545	-221.15503	446.72	1861.0055	-152.37617	-116.22736	1456.2698	-206.00752	-259.13879	1551.3125	-201.80501	-357.53912	1581.4984	-221.08855	-340.89566	1666.9647	-183.01698	-412.88055	1776.0017	-145.09898	-456.01575	1765.1851	-187.64838	-459.52307	1860.4023	-140.66786	143.97276	902.82928	-82.281921	-147.89667	906.77142	-73.128571	61.122871	955.17401	-288.92789	-76.140701	945.8147	-285.85767
932	9.31	71.250816	1603.6865	-64.858498	-82.71006	1599.4508	-62.813038	69.600868	1593.9872	-197.48898	-93.812073	1591.181	-178.38542	-3.4533765	1423.0325	-246.76775	-1.9605565	1227.3483	-286.54245	1.1407306	1378.3041	-92.364548	5.5043683	1233.7346	-43.006725	-90.817787	1308.2137	-277.63263	98.777367	1450.9598	-214.72038	155.28688	1499.7318	-227.06619	330.0119	1591.243	-249.04716	355.2583	1721.8923	-179.26735	392.37799	1784.4219	-161.70245	418.56577	1786.7739	-221.29651	432.10904	1870.5458	-152.82018	-115.15031	1456.6979	-206.51505	-254.80818	1554.5153	-202.04471	-352.72723	1587.0168	-220.41328	-333.4227	1672.3938	-183.60503	-402.61902	1783.5334	-144.77554	-446.22177	1773.458	-187.98418	-446.83139	1869.0659	-141.73285	143.82501	902.8371	-82.307999	-148.01125	906.79034	-73.233192	61.041256	955.2395	-288.92569	-76.185425	945.87372	-285.92319
933	9.32	71.38485	1603.8068	-65.026917	-82.601746	1599.4957	-63.117496	69.863823	1594.201	-197.62515	-92.968819	1591.6613	-178.71802	-3.2910075	1422.8865	-246.9341	-1.8436658	1227.2928	-286.22266	1.3987041	1378.6422	-92.562912	5.6443353	1234.1017	-42.936428	-90.710205	1308.1729	-277.47031	98.061783	1451.1333	-215.52879	152.85391	1500.5803	-227.79384	325.32617	1596.1611	-248.23824	345.66168	1728.265	-179.52946	380.68854	1792.0117	-162.34409	407.89722	1794.3501	-221.243	417.86398	1879.4285	-153.08801	-114.10567	1457.098	-207.19534	-250.61526	1557.5411	-202.17148	-347.99442	1592.2209	-219.83566	-326.11664	1677.4021	-184.09592	-392.13019	1790.6521	-146.7236	-436.44089	1781.2278	-188.19029	-434.14767	1877.4601	-142.87846	143.70412	902.9071	-82.258171	-148.10576	906.8313	-73.333115	61.049503	955.28882	-288.91614	-76.245155	945.99261	-285.91208
934	9.33	71.547623	1603.896	-65.119423	-82.376648	1599.5043	-63.312328	70.126747	1594.4113	-197.79184	-92.712578	1591.7639	-179.02675	-3.0962362	1422.7762	-247.2796	-1.7078236	1227.266	-286.02542	1.5667183	1378.9563	-92.866325	5.7049294	1234.4264	-42.988304	-90.634064	1308.1383	-277.37616	97.38485	1451.266	-216.2998	150.51787	1501.3729	-228.46799	320.69879	1600.8169	-247.36395	336.21323	1734.1989	-180.01628	369.18024	1799.0977	-162.72536	397.56421	1801.6642	-221.14227	403.72769	1887.5234	-154.52766	-113.13042	1457.436	-207.79567	-246.48076	1560.2892	-202.36331	-343.26248	1597.1816	-219.15404	-318.86728	1682.0797	-184.49171	-381.43042	1797.4272	-146.92773	-426.78577	1788.5658	-188.24503	-421.6564	1885.1182	-143.74663	143.51688	902.96417	-82.255928	-148.17772	906.85492	-73.423935	61.023167	955.31226	-288.84579	-76.295113	946.04535	-285.92972
935	9.34	71.744705	1603.9941	-65.370049	-82.183304	1599.5559	-63.549885	70.3629	1594.5967	-197.98224	-92.438057	1591.8728	-179.27158	-2.8791106	1422.6912	-247.56354	-1.5388224	1227.1924	-285.78577	1.7708604	1379.2377	-93.084061	5.8697958	1234.7307	-42.900921	-90.56102	1308.1096	-277.26807	96.780319	1451.3569	-217.08888	148.27629	1502.0676	-229.24858	316.16611	1605.3831	-246.4259	326.9054	1739.7545	-180.10904	357.81363	1805.6605	-162.92323	387.24545	1808.4623	-220.70789	389.20926	1895.1201	-154.55566	-112.21832	1457.7891	-208.47035	-242.47272	1562.9479	-202.64586	-338.68289	1601.8789	-218.33409	-311.80112	1686.4493	-184.87202	-371.21039	1803.5579	-147.56192	-417.18561	1795.4312	-188.15359	-409.3197	1892.2982	-144.54178	143.37317	903.02258	-82.238907	-148.25893	906.91168	-73.511185	61.074467	955.3576	-288.84689	-76.321045	946.11902	-285.94058
936	9.35	71.94445	1604.0725	-65.537453	-82.025681	1599.6055	-63.899502	70.613869	1594.7504	-198.1918	-92.217155	1591.9329	-179.60966	-2.6323678	1422.5845	-247.85033	-1.3298028	1227.1666	-285.92484	1.9941702	1379.5272	-93.461906	6.0277309	1234.9902	-42.915127	-90.510147	1308.1061	-277.24756	95.979912	1451.5966	-217.91339	146.09966	1502.6976	-229.86316	311.55811	1609.6005	-245.53241	317.7478	1744.9213	-180.0296	346.71848	1811.6863	-162.97256	377.31958	1814.9755	-220.26309	375.88437	1902.0474	-155.4012	-111.36025	1458.1459	-209.0507	-238.56371	1565.3828	-202.95573	-334.06219	1606.39	-217.5576	-304.86243	1690.5824	-185.06235	-361.51718	1809.2098	-147.88924	-407.84122	1801.8938	-187.87946	-397.31726	1899.0087	-145.24884	143.22546	903.09491	-82.257057	-148.31352	906.95355	-73.546021	61.071884	955.35248	-288.80426	-76.357506	946.1767	-285.99484
937	9.36	72.172562	1604.187	-65.818451	-81.751907	1599.6316	-64.23732	70.851555	1594.8801	-198.47958	-91.926918	1592.0541	-179.97559	-2.3902669	1422.4525	-248.13084	-1.1815394	1227.0804	-285.68076	2.2762485	1379.8274	-93.717018	6.1363945	1235.2563	-42.972248	-90.46003	1308.1023	-277.22391	95.473129	1451.5958	-218.74326	144.03635	1503.2499	-230.52097	307.09445	1613.7452	-244.65463	308.61368	1749.5068	-179.93269	335.64081	1817.137	-162.89896	367.16336	1820.8076	-219.52487	362.35767	1908.3624	-155.4762	-110.50177	1458.5099	-209.67801	-234.75543	1567.6602	-203.21089	-329.52325	1610.7211	-216.7345	-298.04791	1694.4778	-185.06497	-351.41592	1814.8257	-148.45955	-398.67432	1807.9954	-187.44362	-385.37125	1905.2668	-145.59669	143.06548	903.20764	-82.17318	-148.38776	906.99487	-73.642448	61.085007	955.40851	-288.83444	-76.387344	946.18079	-286.02542
938	9.37	72.422287	1604.2682	-66.120956	-81.882568	1599.6805	-64.177185	71.160385	1595.0115	-198.74477	-91.980896	1591.9397	-180.09911	-2.1398335	1422.3978	-248.41727	-1.0262128	1227.0001	-285.47577	2.4652977	1380.1058	-94.071968	6.3293128	1235.5651	-42.968189	-90.406151	1308.1296	-277.20218	95.167442	1451.4764	-219.43954	142.06032	1503.6459	-231.18497	302.60416	1617.701	-243.5484	299.81168	1753.7192	-179.54298	324.84796	1822.1956	-162.50404	357.68488	1826.0854	-219.07288	349.10883	1914.0786	-155.21893	-109.67813	1458.8093	-210.1917	-231.01849	1569.9535	-203.7394	-325.11133	1614.8229	-215.92191	-291.39444	1698.1147	-184.82919	-341.97134	1819.8047	-148.57365	-389.70218	1813.7122	-186.84241	-374.08295	1910.9464	-145.70094	142.89919	903.26782	-82.08477	-148.53148	907.03497	-73.731392	61.063213	955.4007	-288.78482	-76.393585	946.17334	-286.09692
